# xmcd
#
# Track frame offsets: 
#        150
#        28404
#        44310
#        61277
#        74106
#        97400
#        119037
#        135977
#        153487
#        180388
#        191398
#        215481
#        233028
#
# Disc length: 3296 seconds
#
# Revision: 6
# Processed by: cddbd v1.5.2PL0 Copyright (c) Steve Scherf et al.
# Submitted via: ExactAudioCopyFreeDBPlugin 1.0
#
DISCID=ba0cde0d,c40cde0d
DTITLE=Various Artist - White Boys Blues [CD 1)
DYEAR=1999
DGENRE=Blues
TTITLE0=Alvin Lee - Long Legs
TTITLE1=Jack Bruce - Send For Me
TTITLE2=Canned Heat - Creole Queen
TTITLE3=Ian Anderson - Man Of The World
TTITLE4=Hadden Sayers - End Of The Road
TTITLE5=Southside Johnny - Baby When The Sun Goes Down
TTITLE6=The Pretty Things - Judgement Day
TTITLE7=Savoy Brown - Sweet Loving Thing
TTITLE8=Hadden Sayers - Big Shot
TTITLE9=Linek - Railway Ride
TTITLE10=Harvey Mandel - Ramblin' Pony
TTITLE11=Mick and Chris Jagger - Racketeer Blues
TTITLE12=Ken Hensley - Hellhound On My Trail
EXTD=Year: 1999   [CD 1 from 2) YEAR: 1999
EXTT0=
EXTT1=
EXTT2=
EXTT3=
EXTT4=
EXTT5=
EXTT6=
EXTT7=
EXTT8=
EXTT9=
EXTT10=
EXTT11=
EXTT12=
PLAYORDER=
